#!OML:ASF I:\Actors\actors\Patient Classification 1\Patient 1\Session 1\Subject1.ASF
:FULLY-SPECIFIED
:DEGREES
401
root -0.371435 17.4992 7.83337 6.65863 -1.82248 -8.06422
lowerback -0.136198 2.36461 5.67682
upperback -8.80758 3.4983 0.403503
thorax -8.92555 1.31015 -2.99333
lowerneck -13.7841 -5.97399 -3.69445
upperneck 26.0265 -10.3578 9.49841
head 11.4724 -3.9572 2.62568
rclavicle 2.75317e-014 -2.38542e-015
rhumerus -9.50884 31.6614 -82.1618
rradius 110.143
rwrist -16.138
rhand -17.8919 -59.8437
rfingers 7.12502
rthumb 8.37471 -89.6577
lclavicle 2.75317e-014 -2.38542e-015
lhumerus -26.1808 -34.5351 97.343
lradius 102.158
lwrist 31.3645
lhand -17.2681 -7.439
lfingers 7.12502
lthumb 8.97662 22.35
rfemur 1.88293 24.4184 27.337
rtibia 1.03814
rfoot -12.5585 -21.8878
rtoes 1.66382
lfemur 10.7559 -40.6774 -17.3692
ltibia -4.75456
lfoot -16.5751 47.5561
ltoes 4.84413
402
root -0.369521 17.4994 7.83404 6.69623 -1.74039 -8.08587
lowerback -0.118672 2.38887 5.80502
upperback -8.78182 3.53688 0.392721
thorax -8.89765 1.3204 -3.07846
lowerneck -13.941 -5.99558 -3.6404
upperneck 25.9415 -10.3303 9.2962
head 11.4523 -3.96068 2.54076
rclavicle -3.8763e-015 -1.27222e-014
rhumerus -12.7347 31.2704 -85.0649
rradius 109.896
rwrist -20.0219
rhand -17.2521 -61.3799
rfingers 7.12502
rthumb 8.99207 -268.832
lclavicle -3.8763e-015 -1.27222e-014
lhumerus -26.065 -34.5728 97.3512
lradius 102.213
lwrist 31.4341
lhand -17.3408 -7.1974
lfingers 7.12502
lthumb 8.90646 22.5946
rfemur 1.84293 24.4196 27.3511
rtibia 1.04821
rfoot -12.5986 -21.9412
rtoes 1.70771
lfemur 10.6015 -40.5847 -17.2197
ltibia -4.73319
lfoot -16.5094 47.4023
ltoes 4.71479
403
root -0.369412 17.4997 7.83491 6.71401 -1.73924 -8.11926
lowerback -0.0191214 2.41176 5.79102
upperback -8.77639 3.58029 0.470272
thorax -8.95201 1.34448 -2.99637
lowerneck -14.0715 -5.99541 -3.67277
upperneck 25.8556 -10.2787 9.1931
head 11.4361 -3.95084 2.51147
rclavicle -3.97569e-015 5.56597e-015
rhumerus -16.3409 30.0192 -88.4448
rradius 109.75
rwrist -23.213
rhand -16.103 -62.5354
rfingers 7.12502
rthumb 10.1007 -267.727
lclavicle -3.97569e-015 5.56597e-015
lhumerus -26.0899 -34.489 97.53
lradius 102.281
lwrist 31.4069
lhand -17.3055 -6.99959
lfingers 7.12502
lthumb 8.94052 22.791
rfemur 1.84063 24.5127 27.4014
rtibia 1.0515
rfoot -12.6294 -22.0036
rtoes 1.71536
lfemur 10.535 -40.4131 -17.0907
ltibia -4.77073
lfoot -16.3463 47.2319
ltoes 4.54373
404
root -0.369862 17.4995 7.83573 6.7352 -1.77237 -8.10894
lowerback 0.0451431 2.41283 5.72923
upperback -8.77463 3.58814 0.533151
thorax -8.99408 1.35441 -2.89935
lowerneck -14.0424 -5.97447 -3.79613
upperneck 25.6933 -10.2234 9.2833
head 11.3763 -3.93338 2.57243
rclavicle -2.71341e-014 -3.81667e-014
rhumerus -18.3704 30.7767 -90.1799
rradius 109.445
rwrist -27.5579
rhand -16.1658 -63.954
rfingers 7.12502
rthumb 10.0402 -266.305
lclavicle -2.71341e-014 -3.81667e-014
lhumerus -26.2019 -34.3562 97.6772
lradius 102.348
lwrist 31.353
lhand -17.2412 -6.95021
lfingers 7.12502
lthumb 9.0026 22.8377
rfemur 1.82818 24.578 27.3911
rtibia 1.05787
rfoot -12.6485 -22.0207
rtoes 1.72777
lfemur 10.5281 -40.3672 -17.0835
ltibia -4.79485
lfoot -16.3267 47.2034
ltoes 4.46761
405
root -0.369835 17.4989 7.83599 6.76425 -1.78224 -8.0852
lowerback 0.0295266 2.39466 5.81305
upperback -8.75102 3.56236 0.491585
thorax -8.9546 1.33512 -2.98664
lowerneck -13.9597 -5.92735 -3.78961
upperneck 25.5216 -10.163 9.37133
head 11.2949 -3.90355 2.61272
rclavicle 2.0276e-014 -3.97569e-015
rhumerus -20.7091 30.739 -92.5028
rradius 109.165
rwrist -30.5959
rhand -15.7875 -64.6556
rfingers 7.12502
rthumb 10.4051 -265.622
lclavicle 2.0276e-014 -3.97569e-015
lhumerus -26.2249 -34.3318 97.6057
lradius 102.404
lwrist 31.3245
lhand -17.2108 -6.81576
lfingers 7.12502
lthumb 9.03195 22.9709
rfemur 1.78854 24.626 27.3514
rtibia 1.07297
rfoot -12.6858 -22.0531
rtoes 1.9469
lfemur 10.5124 -40.4302 -17.1095
ltibia -4.79592
lfoot -16.4402 47.2833
ltoes 4.50045
406
root -0.368246 17.4989 7.83643 6.79939 -1.77838 -8.04739
lowerback -0.0339285 2.38981 5.9764
upperback -8.70355 3.5491 0.388974
thorax -8.85203 1.31603 -3.18037
lowerneck -13.9077 -5.85949 -3.64299
upperneck 25.3509 -10.094 9.41219
head 11.2091 -3.86078 2.61257
rclavicle -3.8763e-014 -6.36111e-015
rhumerus -23.2279 30.005 -95.0965
rradius 109.092
rwrist -31.9391
rhand -15.019 -65.296
rfingers 7.12502
rthumb 11.1464 -265.02
lclavicle -3.8763e-014 -6.36111e-015
lhumerus -26.1538 -34.4548 97.4561
lradius 102.416
lwrist 31.3252
lhand -17.2676 -6.78118
lfingers 7.12502
lthumb 8.97713 23.0078
rfemur 1.745 24.667 27.2805
rtibia 1.05944
rfoot -12.7365 -22.0873
rtoes 2.18258
lfemur 10.5021 -40.5503 -17.171
ltibia -4.7968
lfoot -16.5816 47.3939
ltoes 4.74087
407
root -0.364814 17.4995 7.83682 6.84544 -1.79256 -8.0039
lowerback 0.273774 2.35749 5.73402
upperback -8.87308 3.53872 0.571406
thorax -9.24669 1.3206 -2.87254
lowerneck -13.9068 -5.80736 -3.77784
upperneck 25.4964 -9.98097 9.34262
head 11.257 -3.82567 2.62894
rclavicle 1.27222e-014 -1.27222e-014
rhumerus -24.9335 30.975 -96.5682
rradius 108.773
rwrist -33.2597
rhand -14.9013 -65.996
rfingers 7.12502
rthumb 11.2599 -264.326
lclavicle 1.27222e-014 -1.27222e-014
lhumerus -26.5287 -34.2977 97.9776
lradius 102.393
lwrist 31.2003
lhand -17.2992 -6.84463
lfingers 7.12502
lthumb 8.94666 22.9457
rfemur 1.67379 24.6398 27.1826
rtibia 1.06769
rfoot -12.7415 -22.0513
rtoes 2.26466
lfemur 10.4622 -40.6179 -17.2334
ltibia -4.77533
lfoot -16.549 47.4544
ltoes 4.8081
408
root -0.360744 17.4998 7.83725 6.86889 -1.80546 -7.94781
lowerback 0.320667 2.34029 5.80383
upperback -8.86574 3.51991 0.538575
thorax -9.26307 1.30373 -2.94689
lowerneck -14.0318 -5.77966 -3.79786
upperneck 25.6356 -9.98782 9.46895
head 11.3452 -3.80668 2.67668
rclavicle 1.93815e-014 3.89618e-014
rhumerus -26.4611 31.5235 -98.2243
rradius 108.699
rwrist -33.8254
rhand -14.5138 -66.144
rfingers 7.12502
rthumb 11.6337 -264.199
lclavicle 1.93815e-014 3.89618e-014
lhumerus -26.5596 -34.3869 98.0458
lradius 102.314
lwrist 31.0567
lhand -17.2846 -6.773
lfingers 7.12502
lthumb 8.96074 23.0167
rfemur 1.61493 24.5796 27.0823
rtibia 1.10795
rfoot -12.6789 -22.0049
rtoes 2.05559
lfemur 10.4226 -40.6286 -17.3089
ltibia -4.73225
lfoot -16.5533 47.4423
ltoes 4.87131
409
root -0.357608 17.4998 7.83806 6.87416 -1.81169 -7.89756
lowerback 0.223136 2.329 5.95717
upperback -8.78105 3.4936 0.439939
thorax -9.1003 1.28157 -3.12741
lowerneck -14.0836 -5.8739 -3.84163
upperneck 25.6053 -10.1574 9.62979
head 11.3716 -3.86814 2.71553
rclavicle -4.37326e-015 1.59028e-014
rhumerus -27.891 31.8643 -99.8321
rradius 108.77
rwrist -34.2823
rhand -14.1686 -65.8298
rfingers 7.12502
rthumb 11.9666 -264.532
lclavicle -4.37326e-015 1.59028e-014
lhumerus -26.4887 -34.5842 97.9064
lradius 102.269
lwrist 30.9547
lhand -17.2702 -6.60521
lfingers 7.12502
lthumb 8.97463 23.1839
rfemur 1.58955 24.5509 27.0079
rtibia 1.13053
rfoot -12.6072 -22.0002
rtoes 1.62576
lfemur 10.4271 -40.679 -17.3946
ltibia -4.71649
lfoot -16.6872 47.4604
ltoes 5.08184
410
root -0.355154 17.5006 7.83814 6.87647 -1.82543 -7.8928
lowerback 0.197854 2.31251 6.06256
upperback -8.73908 3.47033 0.407342
thorax -9.03444 1.2636 -3.2164
lowerneck -14.1035 -5.79457 -3.59423
upperneck 25.7374 -10.0909 9.52361
head 11.4005 -3.82129 2.64655
rclavicle -4.77083e-015 -2.38542e-015
rhumerus -29.227 32.0653 -101.205
rradius 108.815
rwrist -34.7121
rhand -13.648 -65.2701
rfingers 7.12502
rthumb 12.4685 -265.122
lclavicle -4.77083e-015 -2.38542e-015
lhumerus -26.5296 -34.7116 97.8673
lradius 102.267
lwrist 30.9142
lhand -17.1818 -6.45325
lfingers 7.12502
lthumb 9.05991 23.3322
rfemur 1.57877 24.5896 27.0015
rtibia 1.15252
rfoot -12.5682 -22.0461
rtoes 1.38173
lfemur 10.4725 -40.7884 -17.4534
ltibia -4.73109
lfoot -16.7395 47.5624
ltoes 5.18006
411
root -0.352948 17.5015 7.83701 6.87014 -1.84939 -7.91072
lowerback 0.257351 2.29839 6.14769
upperback -8.72624 3.4592 0.399771
thorax -9.05272 1.25062 -3.27355
lowerneck -14.0857 -5.82462 -3.46232
upperneck 25.759 -10.1304 9.38156
head 11.3919 -3.84343 2.56668
rclavicle -1.27222e-014 -3.02153e-014
rhumerus -30.1933 32.0328 -102.337
rradius 108.815
rwrist -34.8499
rhand -12.7195 -64.715
rfingers 7.12502
rthumb 13.3635 -265.734
lclavicle -1.27222e-014 -3.02153e-014
lhumerus -26.5755 -34.8267 97.9208
lradius 102.193
lwrist 30.872
lhand -17.0775 -6.40794
lfingers 7.12502
lthumb 9.16054 23.3731
rfemur 1.57667 24.6378 27.0266
rtibia 1.17491
rfoot -12.5653 -22.0672
rtoes 1.40956
lfemur 10.4983 -40.8008 -17.4614
ltibia -4.73683
lfoot -16.6895 47.5893
ltoes 5.09133
412
root -0.351247 17.5018 7.83585 6.87611 -1.85422 -7.92972
lowerback 0.300166 2.27889 6.19986
upperback -8.71696 3.43903 0.405179
thorax -9.06813 1.23641 -3.29728
lowerneck -14.1567 -5.86589 -3.5075
upperneck 25.8543 -10.2006 9.41633
head 11.4533 -3.86983 2.57584
rclavicle -2.59414e-014 0
rhumerus -30.8173 31.9242 -103.245
rradius 108.858
rwrist -34.8503
rhand -12.1757 -64.2044
rfingers 7.12502
rthumb 13.8877 -266.279
lclavicle -2.59414e-014 0
lhumerus -26.6191 -34.9517 97.993
lradius 102.11
lwrist 30.7737
lhand -16.9481 -6.33744
lfingers 7.12502
lthumb 9.28539 23.4381
rfemur 1.55864 24.6444 27.0386
rtibia 1.17567
rfoot -12.5605 -22.0722
rtoes 1.3926
lfemur 10.4151 -40.6624 -17.3743
ltibia -4.70321
lfoot -16.5916 47.4549
ltoes 4.89294
413
root -0.349989 17.5015 7.83477 6.88205 -1.84886 -7.92948
lowerback 0.317479 2.23943 6.19887
upperback -8.70478 3.38876 0.434327
thorax -9.0717 1.21308 -3.26285
lowerneck -14.2203 -5.87949 -3.59951
upperneck 25.9374 -10.2302 9.49592
head 11.5108 -3.87775 2.61571
rclavicle 5.96354e-015 -1.19271e-014
rhumerus -31.2249 31.9095 -103.902
rradius 108.915
rwrist -34.6583
rhand -12.0892 -63.7546
rfingers 7.12502
rthumb 13.971 -266.735
lclavicle 5.96354e-015 -1.19271e-014
lhumerus -26.7187 -35.0071 98.0947
lradius 102.078
lwrist 30.63
lhand -16.8666 -6.18171
lfingers 7.12502
lthumb 9.36408 23.5903
rfemur 1.53545 24.6569 27.0259
rtibia 1.18059
rfoot -12.5652 -22.0815
rtoes 1.44001
lfemur 10.3413 -40.5892 -17.3232
ltibia -4.66497
lfoot -16.613 47.3719
ltoes 4.88861
414
root -0.349076 17.5006 7.83241 6.88041 -1.89304 -7.92057
lowerback 0.365993 2.19265 6.15598
upperback -8.73017 3.33225 0.485654
thorax -9.13925 1.18778 -3.18363
lowerneck -14.0917 -5.83808 -3.5638
upperneck 25.9584 -10.1664 9.43767
head 11.4816 -3.85655 2.60159
rclavicle 1.3418e-014 -1.59028e-015
rhumerus -31.4926 32.0124 -104.377
rradius 108.93
rwrist -34.1937
rhand -12.0412 -63.3917
rfingers 7.12502
rthumb 14.0173 -267.101
lclavicle 1.3418e-014 -1.59028e-015
lhumerus -26.9415 -34.9656 98.2598
lradius 102.062
lwrist 30.5003
lhand -16.9721 -6.22119
lfingers 7.12502
lthumb 9.26224 23.5554
rfemur 1.50937 24.724 27.0049
rtibia 1.20943
rfoot -12.6112 -22.0548
rtoes 1.70364
lfemur 10.2915 -40.4598 -17.283
ltibia -4.65884
lfoot -16.5482 47.2875
ltoes 4.75051
